<mxfile host="app.diagrams.net" agent="Mozilla/5.0 (Windows NT 10.0; Win64; x64) AppleWebKit/537.36 (KHTML, like Gecko) Chrome/127.0.0.0 Safari/537.36" version="24.7.7">
  <diagram id="C5RBs43oDa-KdzZeNtuy" name="Page-1">
    <mxGraphModel dx="1799" dy="936" grid="1" gridSize="10" guides="1" tooltips="1" connect="1" arrows="1" fold="1" page="1" pageScale="1" pageWidth="827" pageHeight="1169" math="0" shadow="0">
      <root>
        <mxCell id="WIyWlLk6GJQsqaUBKTNV-0" />
        <mxCell id="WIyWlLk6GJQsqaUBKTNV-1" parent="WIyWlLk6GJQsqaUBKTNV-0" />
        <mxCell id="WIyWlLk6GJQsqaUBKTNV-2" value="" style="rounded=0;html=1;jettySize=auto;orthogonalLoop=1;fontSize=11;endArrow=block;endFill=0;endSize=8;strokeWidth=1;shadow=0;labelBackgroundColor=none;edgeStyle=orthogonalEdgeStyle;" parent="WIyWlLk6GJQsqaUBKTNV-1" source="WIyWlLk6GJQsqaUBKTNV-3" target="FBujPzgb5vBAz9o8Uaoi-1" edge="1">
          <mxGeometry relative="1" as="geometry">
            <mxPoint x="265" y="210" as="targetPoint" />
          </mxGeometry>
        </mxCell>
        <mxCell id="WIyWlLk6GJQsqaUBKTNV-3" value="Hits api and goes through&amp;nbsp;getValidAccessToken() function" style="rounded=1;whiteSpace=wrap;html=1;fontSize=12;glass=0;strokeWidth=1;shadow=0;" parent="WIyWlLk6GJQsqaUBKTNV-1" vertex="1">
          <mxGeometry x="160" y="80" width="210" height="70" as="geometry" />
        </mxCell>
        <mxCell id="FBujPzgb5vBAz9o8Uaoi-3" style="edgeStyle=orthogonalEdgeStyle;rounded=0;orthogonalLoop=1;jettySize=auto;html=1;" edge="1" parent="WIyWlLk6GJQsqaUBKTNV-1" source="FBujPzgb5vBAz9o8Uaoi-1" target="FBujPzgb5vBAz9o8Uaoi-4">
          <mxGeometry relative="1" as="geometry">
            <mxPoint x="265" y="370" as="targetPoint" />
          </mxGeometry>
        </mxCell>
        <mxCell id="FBujPzgb5vBAz9o8Uaoi-1" value="&lt;span style=&quot;text-align: left;&quot;&gt;After entering the function, the getTokensFromLocalStorage() function is called that returns the access and refresh token from local storage.&amp;nbsp;&lt;/span&gt;" style="rounded=1;whiteSpace=wrap;html=1;fontSize=12;glass=0;strokeWidth=1;shadow=0;" vertex="1" parent="WIyWlLk6GJQsqaUBKTNV-1">
          <mxGeometry x="155" y="220" width="220" height="80" as="geometry" />
        </mxCell>
        <mxCell id="FBujPzgb5vBAz9o8Uaoi-7" style="edgeStyle=orthogonalEdgeStyle;rounded=0;orthogonalLoop=1;jettySize=auto;html=1;entryX=0.5;entryY=0;entryDx=0;entryDy=0;" edge="1" parent="WIyWlLk6GJQsqaUBKTNV-1" source="FBujPzgb5vBAz9o8Uaoi-4" target="FBujPzgb5vBAz9o8Uaoi-11">
          <mxGeometry relative="1" as="geometry">
            <mxPoint x="265" y="560" as="targetPoint" />
          </mxGeometry>
        </mxCell>
        <mxCell id="FBujPzgb5vBAz9o8Uaoi-8" style="edgeStyle=orthogonalEdgeStyle;rounded=0;orthogonalLoop=1;jettySize=auto;html=1;" edge="1" parent="WIyWlLk6GJQsqaUBKTNV-1" source="FBujPzgb5vBAz9o8Uaoi-4" target="FBujPzgb5vBAz9o8Uaoi-20">
          <mxGeometry relative="1" as="geometry">
            <mxPoint x="500" y="430" as="targetPoint" />
          </mxGeometry>
        </mxCell>
        <mxCell id="FBujPzgb5vBAz9o8Uaoi-4" value="access token present in local storage?" style="rhombus;whiteSpace=wrap;html=1;" vertex="1" parent="WIyWlLk6GJQsqaUBKTNV-1">
          <mxGeometry x="166.25" y="360" width="197.5" height="140" as="geometry" />
        </mxCell>
        <mxCell id="FBujPzgb5vBAz9o8Uaoi-9" value="NO" style="text;html=1;align=center;verticalAlign=middle;resizable=0;points=[];autosize=1;strokeColor=none;fillColor=none;" vertex="1" parent="WIyWlLk6GJQsqaUBKTNV-1">
          <mxGeometry x="406" y="400" width="40" height="30" as="geometry" />
        </mxCell>
        <mxCell id="FBujPzgb5vBAz9o8Uaoi-10" value="YES" style="text;html=1;align=center;verticalAlign=middle;resizable=0;points=[];autosize=1;strokeColor=none;fillColor=none;" vertex="1" parent="WIyWlLk6GJQsqaUBKTNV-1">
          <mxGeometry x="210" y="520" width="50" height="30" as="geometry" />
        </mxCell>
        <mxCell id="FBujPzgb5vBAz9o8Uaoi-12" style="edgeStyle=orthogonalEdgeStyle;rounded=0;orthogonalLoop=1;jettySize=auto;html=1;" edge="1" parent="WIyWlLk6GJQsqaUBKTNV-1" source="FBujPzgb5vBAz9o8Uaoi-11" target="FBujPzgb5vBAz9o8Uaoi-13">
          <mxGeometry relative="1" as="geometry">
            <mxPoint x="265" y="730" as="targetPoint" />
          </mxGeometry>
        </mxCell>
        <mxCell id="FBujPzgb5vBAz9o8Uaoi-11" value="The code returns back to getValidAccessToken() function with the tokens and jwt decode package decodes the time it holds." style="rounded=1;whiteSpace=wrap;html=1;" vertex="1" parent="WIyWlLk6GJQsqaUBKTNV-1">
          <mxGeometry x="167.5" y="570" width="195" height="70" as="geometry" />
        </mxCell>
        <mxCell id="FBujPzgb5vBAz9o8Uaoi-14" style="edgeStyle=orthogonalEdgeStyle;rounded=0;orthogonalLoop=1;jettySize=auto;html=1;entryX=0.477;entryY=-0.035;entryDx=0;entryDy=0;entryPerimeter=0;" edge="1" parent="WIyWlLk6GJQsqaUBKTNV-1" source="FBujPzgb5vBAz9o8Uaoi-13" target="FBujPzgb5vBAz9o8Uaoi-18">
          <mxGeometry relative="1" as="geometry">
            <mxPoint x="265" y="900" as="targetPoint" />
          </mxGeometry>
        </mxCell>
        <mxCell id="FBujPzgb5vBAz9o8Uaoi-15" style="edgeStyle=orthogonalEdgeStyle;rounded=0;orthogonalLoop=1;jettySize=auto;html=1;entryX=0;entryY=0.5;entryDx=0;entryDy=0;" edge="1" parent="WIyWlLk6GJQsqaUBKTNV-1" source="FBujPzgb5vBAz9o8Uaoi-13" target="FBujPzgb5vBAz9o8Uaoi-19">
          <mxGeometry relative="1" as="geometry">
            <mxPoint x="550" y="755" as="targetPoint" />
          </mxGeometry>
        </mxCell>
        <mxCell id="FBujPzgb5vBAz9o8Uaoi-13" value="Current time &amp;gt;= decoded access time?" style="rhombus;whiteSpace=wrap;html=1;" vertex="1" parent="WIyWlLk6GJQsqaUBKTNV-1">
          <mxGeometry x="113.75" y="680" width="302.5" height="150" as="geometry" />
        </mxCell>
        <mxCell id="FBujPzgb5vBAz9o8Uaoi-16" value="NO" style="text;html=1;align=center;verticalAlign=middle;resizable=0;points=[];autosize=1;strokeColor=none;fillColor=none;" vertex="1" parent="WIyWlLk6GJQsqaUBKTNV-1">
          <mxGeometry x="460" y="720" width="40" height="30" as="geometry" />
        </mxCell>
        <mxCell id="FBujPzgb5vBAz9o8Uaoi-17" value="YES" style="text;html=1;align=center;verticalAlign=middle;resizable=0;points=[];autosize=1;strokeColor=none;fillColor=none;" vertex="1" parent="WIyWlLk6GJQsqaUBKTNV-1">
          <mxGeometry x="210" y="850" width="50" height="30" as="geometry" />
        </mxCell>
        <mxCell id="FBujPzgb5vBAz9o8Uaoi-18" value="The refresh token is sent to&amp;nbsp;refreshAccessToken() function which hits the refresh API. This returns a new access token. Now, the new access token replaces the existing access token and&amp;nbsp;setTokensInLocalStorage() function sets it back to local storage." style="rounded=1;whiteSpace=wrap;html=1;" vertex="1" parent="WIyWlLk6GJQsqaUBKTNV-1">
          <mxGeometry x="110.75" y="930" width="323.75" height="120" as="geometry" />
        </mxCell>
        <mxCell id="FBujPzgb5vBAz9o8Uaoi-19" value="API is not hit and the flow code runs with the existing access token." style="rounded=1;whiteSpace=wrap;html=1;" vertex="1" parent="WIyWlLk6GJQsqaUBKTNV-1">
          <mxGeometry x="560" y="723" width="160" height="65" as="geometry" />
        </mxCell>
        <mxCell id="FBujPzgb5vBAz9o8Uaoi-20" value="Returns error saying that the access token is not found." style="rounded=1;whiteSpace=wrap;html=1;" vertex="1" parent="WIyWlLk6GJQsqaUBKTNV-1">
          <mxGeometry x="530" y="397" width="160" height="65" as="geometry" />
        </mxCell>
      </root>
    </mxGraphModel>
  </diagram>
</mxfile>
